<!-- Generated by IcoMoon.io -->
<svg version="1.1" xmlns="http://www.w3.org/2000/svg" width="32" height="32" viewBox="0 0 32 32">
<title>attach</title>
<path d="M28.575 12.193l-14.246 14.072c-2.36 2.332-6.188 2.332-8.548 0-2.36-2.331-2.36-6.111 0-8.443l12.822-12.666c1.573-1.554 4.125-1.554 5.698 0s1.573 4.075 0 5.628l-12.822 12.666c-0.786 0.778-2.062 0.778-2.85 0-0.786-0.777-0.786-2.037 0-2.815l11.398-11.257-1.425-1.407-11.397 11.258c-1.574 1.553-1.574 4.074 0 5.629 1.573 1.553 4.125 1.553 5.698-0.001l12.821-12.665c2.36-2.331 2.361-6.113 0.001-8.444-2.361-2.332-6.188-2.332-8.548 0l-13.534 13.368 0.050 0.049c-2.459 3.122-2.242 7.636 0.662 10.506 2.906 2.87 7.475 3.084 10.636 0.655l0.049 0.049 14.959-14.776-1.425-1.407z"></path>
</svg>
