<?xml version="1.0" encoding="UTF-8"?>
<svg width="26px" height="26px" viewBox="0 0 26 26" version="1.1" xmlns="http://www.w3.org/2000/svg" xmlns:xlink="http://www.w3.org/1999/xlink">
    <!-- Generator: Sketch 49 (51002) - http://www.bohemiancoding.com/sketch -->
    <title>bofang</title>
    <desc>Created with Sketch.</desc>
    <defs></defs>
    <g id="Page-1" stroke="none" stroke-width="1" fill="none" fill-rule="evenodd">
        <g id="web前台自动播放录像-主讲老师-无讲义-copy" transform="translate(-200.000000, -9.000000)" fill="#FFFFFF" fill-rule="nonzero">
            <g id="bofang" transform="translate(200.000000, 9.000000)">
                <path d="M12.9995829,24.3314616 C6.75174073,24.3314616 1.66770416,19.2482593 1.66770416,13.0004171 C1.66770416,6.75174073 6.75174073,1.66937269 12.9995829,1.66937269 C19.2482593,1.66937269 24.3314616,6.75174073 24.3314616,13.0004171 C24.3314616,19.2490935 19.247425,24.3314616 12.9995829,24.3314616 M12.9995829,0 C5.83154179,-3.70489955e-16 0,5.83321033 0,13.0004171 C0,20.1684582 5.83154179,26 12.9995829,26 C20.1676239,26 26,20.1684582 26,13.0004171 C26,5.83321033 20.1684582,0.000834269212 12.9995829,0.000834269212" id="Shape"></path>
                <path d="M9.53333333,9.46111111 L9.53333333,17.4055556 C9.53333333,17.8443151 9.9698557,18.2 10.5083333,18.2 C11.046811,18.2 11.4833333,17.8443151 11.4833333,17.4055556 L11.4833333,9.46111111 C11.4833333,9.02235156 11.046811,8.66666667 10.5083333,8.66666667 C9.9698557,8.66666667 9.53333333,9.02235156 9.53333333,9.46111111 Z M15.3833333,9.46111111 L15.3833333,17.4055556 C15.3833333,17.8443151 15.8198557,18.2 16.3583333,18.2 C16.896811,18.2 17.3333333,17.8443151 17.3333333,17.4055556 L17.3333333,9.46111111 C17.3333333,9.02235156 16.896811,8.66666667 16.3583333,8.66666667 C15.8198557,8.66666667 15.3833333,9.02235156 15.3833333,9.46111111 Z" id="Shape"></path>
            </g>
        </g>
    </g>
</svg>