<?xml version="1.0" encoding="UTF-8"?>
<svg width="26px" height="26px" viewBox="0 0 26 26" version="1.1" xmlns="http://www.w3.org/2000/svg" xmlns:xlink="http://www.w3.org/1999/xlink">
    <!-- Generator: Sketch 52.5 (67469) - http://www.bohemiancoding.com/sketch -->
    <title>bofang</title>
    <desc>Created with Sketch.</desc>
    <g id="Page-1" stroke="none" stroke-width="1" fill="none" fill-rule="evenodd">
        <g id="直播-web主讲老师--暂停" transform="translate(-200.000000, -9.000000)" fill="#FFFFFF" fill-rule="nonzero">
            <g id="bofang" transform="translate(200.000000, 9.000000)">
                <path d="M12.9995829,24.3314616 C6.75174073,24.3314616 1.66770416,19.2482593 1.66770416,13.0004171 C1.66770416,6.75174073 6.75174073,1.66937269 12.9995829,1.66937269 C19.2482593,1.66937269 24.3314616,6.75174073 24.3314616,13.0004171 C24.3314616,19.2490935 19.247425,24.3314616 12.9995829,24.3314616 M12.9995829,0 C5.83154179,-3.70489955e-16 0,5.83321033 0,13.0004171 C0,20.1684582 5.83154179,26 12.9995829,26 C20.1676239,26 26,20.1684582 26,13.0004171 C26,5.83321033 20.1684582,0.000834269212 12.9995829,0.000834269212" id="Shape"></path>
                <path d="M17.9513667,12.2052893 L10.7905333,8.16185595 C10.4109333,7.94735595 9.97889997,7.94605595 9.59756666,8.15795595 C9.21666666,8.3694226 9,8.73168929 9,9.1572226 L9,17.2445226 C9,17.6696226 9.21666666,18.0318893 9.59756666,18.2442226 C9.9789,18.4556893 10.4109333,18.4543893 10.7905333,18.2403226 L17.9513667,14.1964559 C18.3283667,13.9836893 18.542,13.6235893 18.542,13.2010893 C18.542,12.7785893 18.3283667,12.4184893 17.9513667,12.2052893 Z" id="Shape"></path>
            </g>
        </g>
    </g>
</svg>