<?xml version="1.0" encoding="UTF-8"?>
<svg width="16px" height="16px" viewBox="0 0 16 16" version="1.1" xmlns="http://www.w3.org/2000/svg" xmlns:xlink="http://www.w3.org/1999/xlink">
    <!-- Generator: Sketch 46.2 (44496) - http://www.bohemiancoding.com/sketch -->
    <title>视频课</title>
    <desc>Created with Sketch.</desc>
    <defs></defs>
    <g id="Page-1" stroke="none" stroke-width="1" fill="none" fill-rule="evenodd">
        <g id="Artboard" transform="translate(-100.000000, -16.000000)">
            <g id="Group-12" transform="translate(90.000000, 16.000000)"></g>
            <path d="M115.358074,31.2832593 C115.01713,31.2832593 114.740741,31.0068697 114.740741,30.6659259 L114.740741,16.6173333 C114.740741,16.2763895 115.01713,16 115.358074,16 C115.699018,16 115.975407,16.2763895 115.975407,16.6173333 L115.975407,30.6659259 C115.975407,31.0068697 115.699018,31.2832593 115.358074,31.2832593 Z M112.872,16.0998519 L100.750222,17.401037 C100.323541,17.4469027 100.00004,17.807009 100,18.2361481 L100,29.0471111 C100.00004,29.4762502 100.323541,29.8363566 100.750222,29.8822222 L112.872,31.1834074 C113.108992,31.2088447 113.345631,31.1323842 113.522933,30.973084 C113.700234,30.8137838 113.801497,30.5866499 113.801481,30.3482963 L113.801481,16.9348148 C113.801502,16.6964716 113.700235,16.4693487 113.522927,16.3100711 C113.345619,16.1507934 113.108977,16.0743691 112.872,16.0998519 L112.872,16.0998519 Z M104.17237,27.2422704 L104.22132,19.8020259 L110.17237,23.5678223 L104.17237,27.2422704 L104.17237,27.2422704 Z" id="Shape" fill="#666666" fill-rule="nonzero"></path>
        </g>
    </g>
</svg>