<?xml version="1.0" encoding="UTF-8"?>
<svg width="15px" height="13px" viewBox="0 0 15 13" version="1.1" xmlns="http://www.w3.org/2000/svg" xmlns:xlink="http://www.w3.org/1999/xlink">
    <!-- Generator: Sketch 53.2 (72643) - https://sketchapp.com -->
    <title>分组 2@1x</title>
    <desc>Created with Sketch.</desc>
    <g id="Page-1" stroke="none" stroke-width="1" fill="none" fill-rule="evenodd">
        <g id="画板" transform="translate(-75.000000, -69.000000)" fill="#744126">
            <g id="分组-2" transform="translate(75.000000, 69.000000)">
                <g id="u" transform="translate(7.500000, 4.500000) rotate(-90.000000) translate(-7.500000, -4.500000) translate(3.000000, -3.000000)">
                    <path d="M0.0624380176,3.80369806 L8.94642857,3.67857143 C9.2868124,3.67377729 9.56663443,3.94582649 9.57142857,4.28621032 C9.57151007,4.29199707 9.57151007,4.29778468 9.57142857,4.30357143 L9.57130194,4.31256198 C9.56640117,4.66051672 9.28551672,4.94140117 8.93756198,4.94630194 L0.0535714286,5.07142857 C-0.286812402,5.07622271 -0.566634433,4.80417351 -0.571428571,4.46378968 C-0.571510075,4.45800293 -0.571510075,4.45221532 -0.571428571,4.44642857 L-0.571301944,4.43743802 C-0.566401173,4.08948328 -0.285516717,3.80859883 0.0624380176,3.80369806 Z" id="Rectangle-13" transform="translate(4.500000, 4.375000) rotate(-315.000000) translate(-4.500000, -4.375000) "></path>
                    <path d="M0.0624380176,10.0536981 L8.94642857,9.92857143 C9.2868124,9.92377729 9.56663443,10.1958265 9.57142857,10.5362103 C9.57151007,10.5419971 9.57151007,10.5477847 9.57142857,10.5535714 L9.57130194,10.562562 C9.56640117,10.9105167 9.28551672,11.1914012 8.93756198,11.1963019 L0.0535714286,11.3214286 C-0.286812402,11.3262227 -0.566634433,11.0541735 -0.571428571,10.7137897 C-0.571510075,10.7080029 -0.571510075,10.7022153 -0.571428571,10.6964286 L-0.571301944,10.687438 C-0.566401173,10.3394833 -0.285516717,10.0585988 0.0624380176,10.0536981 Z" id="Rectangle-13" transform="translate(4.500000, 10.625000) scale(1, -1) rotate(-315.000000) translate(-4.500000, -10.625000) "></path>
                </g>
                <g id="u-copy" transform="translate(7.500000, 8.500000) rotate(-90.000000) translate(-7.500000, -8.500000) translate(3.000000, 1.000000)">
                    <path d="M0.0624380176,3.80369806 L8.94642857,3.67857143 C9.2868124,3.67377729 9.56663443,3.94582649 9.57142857,4.28621032 C9.57151007,4.29199707 9.57151007,4.29778468 9.57142857,4.30357143 L9.57130194,4.31256198 C9.56640117,4.66051672 9.28551672,4.94140117 8.93756198,4.94630194 L0.0535714286,5.07142857 C-0.286812402,5.07622271 -0.566634433,4.80417351 -0.571428571,4.46378968 C-0.571510075,4.45800293 -0.571510075,4.45221532 -0.571428571,4.44642857 L-0.571301944,4.43743802 C-0.566401173,4.08948328 -0.285516717,3.80859883 0.0624380176,3.80369806 Z" id="Rectangle-13" transform="translate(4.500000, 4.375000) rotate(-315.000000) translate(-4.500000, -4.375000) "></path>
                    <path d="M0.0624380176,10.0536981 L8.94642857,9.92857143 C9.2868124,9.92377729 9.56663443,10.1958265 9.57142857,10.5362103 C9.57151007,10.5419971 9.57151007,10.5477847 9.57142857,10.5535714 L9.57130194,10.562562 C9.56640117,10.9105167 9.28551672,11.1914012 8.93756198,11.1963019 L0.0535714286,11.3214286 C-0.286812402,11.3262227 -0.566634433,11.0541735 -0.571428571,10.7137897 C-0.571510075,10.7080029 -0.571510075,10.7022153 -0.571428571,10.6964286 L-0.571301944,10.687438 C-0.566401173,10.3394833 -0.285516717,10.0585988 0.0624380176,10.0536981 Z" id="Rectangle-13" transform="translate(4.500000, 10.625000) scale(1, -1) rotate(-315.000000) translate(-4.500000, -10.625000) "></path>
                </g>
            </g>
        </g>
    </g>
</svg>