<?xml version="1.0" encoding="UTF-8"?>
<svg width="24px" height="25px" viewBox="0 0 24 25" version="1.1" xmlns="http://www.w3.org/2000/svg" xmlns:xlink="http://www.w3.org/1999/xlink">
    <!-- Generator: Sketch 49 (51002) - http://www.bohemiancoding.com/sketch -->
    <title>下载</title>
    <desc>Created with Sketch.</desc>
    <defs></defs>
    <g id="Page-1" stroke="none" stroke-width="1" fill="none" fill-rule="evenodd">
        <g id="Artboard" transform="translate(-705.000000, -177.000000)" fill="#666666" fill-rule="nonzero">
            <g id="下载" transform="translate(705.000000, 177.000000)">
                <path d="M4.76285273,9.26588774 C4.50762052,8.99612739 4.50762052,8.57635619 4.76285273,8.30659583 C4.88451275,8.18146607 5.05231888,8.11077058 5.22767275,8.11077058 C5.40302661,8.11077058 5.57083274,8.18146607 5.69249277,8.30659583 L11.2519969,14.0350947 L11.2519969,0.674047898 C11.2519969,0.308862911 11.5398736,0 11.9047619,0 C12.2586486,0 12.5575269,0.296145054 12.5575269,0.674047898 L12.5575269,14.0478126 L18.117031,8.31931373 C18.2386911,8.19418397 18.4064972,8.12348848 18.5818511,8.12348848 C18.7572049,8.12348848 18.9250111,8.19418397 19.0466711,8.31931373 C19.3019033,8.58907409 19.3019033,9.00884529 19.0466711,9.27860564 L12.3686651,16.1589815 C12.2366452,16.2843435 12.0697867,16.3533834 11.9029283,16.3533835 C11.7360699,16.3533835 11.571045,16.2970614 11.4371915,16.1589815 L4.76285273,9.26588774 Z" id="Shape"></path>
                <path d="M24,24.4360902 L0,24.4360902 L0,4.32330827 L4.94399999,4.32330827 C5.30086091,4.32330827 5.59015385,4.6076276 5.59015385,4.95835327 C5.59015385,5.30907893 5.30086091,5.59339826 4.94399999,5.59339826 L1.29230767,5.59339826 L1.29230767,23.1678147 L22.7095385,23.1678147 L22.7095385,5.59339826 L18.7753846,5.59339826 C18.4185237,5.59339826 18.1292308,5.30907893 18.1292308,4.95835327 C18.1292308,4.6076276 18.4185237,4.32330827 18.7753846,4.32330827 L24,4.32330827 L24,24.4360902 Z" id="Shape"></path>
            </g>
        </g>
    </g>
</svg>