<?xml version="1.0" encoding="UTF-8"?>
<svg width="40px" height="30px" viewBox="0 0 40 30" version="1.1" xmlns="http://www.w3.org/2000/svg" xmlns:xlink="http://www.w3.org/1999/xlink">
    <!-- Generator: Sketch 52.4 (67378) - http://www.bohemiancoding.com/sketch -->
    <title>ziyuan@1x</title>
    <desc>Created with Sketch.</desc>
    <g id="Page-1" stroke="none" stroke-width="1" fill="none" fill-rule="evenodd">
        <g id="画板" transform="translate(-304.000000, -230.000000)" fill="#FFC779" fill-rule="nonzero">
            <g id="ziyuan" transform="translate(304.000000, 230.000000)">
                <path d="M35.5555555,0 L4.44444445,0 C1.98984556,-1.12725625e-16 3.00601668e-16,1.49238417 0,3.33333334 L0,26.6666667 C3.00601668e-16,28.5076158 1.98984556,30 4.44444445,30 L35.5555555,30 C38.0101544,30 40,28.5076158 40,26.6666667 L40,3.33333334 C40,1.49238417 38.0101544,5.0179996e-15 35.5555555,0 Z M16.200309,21.4549658 C16.200309,21.7152407 15.8694929,21.9262352 15.4614106,21.9262352 L13.7388984,21.9262352 C13.5429303,21.9262352 13.3549886,21.8765837 13.2164183,21.7882036 C13.077848,21.6998234 13,21.5799542 13,21.4549658 L13,18.4712695 C13,18.2109945 13.3308161,18 13.7388984,18 L15.4614106,18 C15.8694929,18 16.200309,18.2109945 16.200309,18.4712695 L16.200309,21.4549658 Z M20.7838379,10.6628935 C17.9720609,10.6630676 15.6487588,12.9889182 15.4875843,15.9649568 C15.4875843,16.1412511 15.3527797,16.2841659 15.1864897,16.2841659 L13.3016377,16.2841659 C13.2185515,16.2843246 13.1390964,16.2480775 13.0820809,16.1840051 C13.0250653,16.1199326 12.9955578,16.0337305 13.0005431,15.9458042 C13.1651157,11.5078518 16.6065411,8 20.7958817,8 C24.9852222,8 28.4266477,11.5078518 28.5912203,15.9458042 C28.5962056,16.0337305 28.566698,16.1199326 28.5096825,16.1840051 C28.452667,16.2480775 28.3732119,16.2843246 28.2901257,16.2841659 L26.3932299,16.2841659 C26.2269399,16.2841659 26.0921353,16.1412511 26.0921353,15.9649568 C25.9307009,12.9839912 23.6002627,10.6562899 20.7838379,10.6628935 Z M28.5852714,21.4547757 C28.5852714,21.7150506 28.2544553,21.9260451 27.846373,21.9260451 L26.1238607,21.9260451 C25.7157785,21.9260451 25.3849624,21.7150506 25.3849624,21.4547757 L25.3849624,18.4710794 C25.3849624,18.2108044 25.7157785,17.9998099 26.1238607,17.9998099 L27.846373,17.9998099 C28.2544553,17.9998099 28.5852714,18.2108044 28.5852714,18.4710794 L28.5852714,21.4547757 Z" id="形状"></path>
            </g>
        </g>
    </g>
</svg>