<?xml version="1.0" encoding="UTF-8"?>
<svg width="40px" height="30px" viewBox="0 0 40 30" version="1.1" xmlns="http://www.w3.org/2000/svg" xmlns:xlink="http://www.w3.org/1999/xlink">
    <!-- Generator: Sketch 52.4 (67378) - http://www.bohemiancoding.com/sketch -->
    <title>kaoshi@1x</title>
    <desc>Created with Sketch.</desc>
    <g id="Page-1" stroke="none" stroke-width="1" fill="none" fill-rule="evenodd">
        <g id="画板" transform="translate(-304.000000, -270.000000)" fill="#FFC779" fill-rule="nonzero">
            <g id="kaoshi" transform="translate(304.000000, 270.000000)">
                <path d="M14.2,14 C13.8,14.4 13.8,14.8 14.2,15.2 L19.8,20.8 C20.2,21.2 20.6,21.2 21,20.8 C21.4,20.4 20.6310759,20.3383663 20.2310759,20.1383663 L14.6310759,14.5383663 C14.2310759,14.1383663 14.6,13.6 14.2,14 Z M36,1.42108547e-14 L4,1.42108547e-14 C1.8,1.42108547e-14 0,1.35 0,3 L0,27 C0,28.65 1.8,30 4,30 L36,30 C38.2,30 40,28.65 40,27 L40,3 C40,1.35 38.2,1.42108547e-14 36,1.42108547e-14 Z M18.0010226,21.7024798 L14.9002301,21.7024798 C14.3000767,21.7024798 14,21.4024031 14,20.8022497 L14,17.7014572 C14,17.4013805 14.1000256,17.1013038 14.3000767,16.9012527 L20.200792,10.8409549 L24.7019424,15.3421053 L18.8012271,21.3023775 C18.601176,21.6024542 18.3010993,21.7024798 18.0010226,21.7024798 Z M26.2775239,13.73105 L25.2772682,14.8313312 L20.6760923,10.3301808 L21.7763735,9.22989955 C22.4765524,8.52972059 23.6768592,8.52972059 24.3770382,9.22989955 L26.2775239,11.1303853 C26.9777028,11.9305898 26.9777028,13.030871 26.2775239,13.73105 Z" id="形状"></path>
            </g>
        </g>
    </g>
</svg>