<!-- Generated by IcoMoon.io -->
<svg version="1.1" xmlns="http://www.w3.org/2000/svg" width="32" height="32" viewBox="0 0 32 32">
<title>edit</title>
<path d="M20.68 6.155l4.882 4.668 3.255-3.112c0.829-0.745 0.823-0.819 0-1.556l-3.255-3.112c-0.803-0.757-0.79-0.807-1.627 0l-3.255 3.112zM8.475 17.825c1.672 1.597 4.409 4.215 4.882 4.668l10.578-10.114-4.882-4.668-10.578 10.114zM5.011 25.806l6.719-1.756-4.882-4.668-1.837 6.424zM31.258 5.377c0.985 0.941 0.994 2.162 0 3.112l-18.075 17.282-9.001 2.382c-1.249 0.254-1.893-0.362-1.627-1.556l2.492-8.606 18.075-17.282c0.994-0.95 2.269-0.941 3.255 0l4.882 4.668zM2 29.799v2.201h26v-2.201h-26z"></path>
</svg>
