<?xml version="1.0" encoding="UTF-8"?>
<svg width="16px" height="15px" viewBox="0 0 16 15" version="1.1" xmlns="http://www.w3.org/2000/svg" xmlns:xlink="http://www.w3.org/1999/xlink">
    <!-- Generator: Sketch 52.5 (67469) - http://www.bohemiancoding.com/sketch -->
    <title>Shape</title>
    <desc>Created with Sketch.</desc>
    <g id="Page-1" stroke="none" stroke-width="1" fill="none" fill-rule="evenodd">
        <g id="助教-直播暂停" transform="translate(-1408.000000, -253.000000)" fill="#FFFFFF" fill-rule="nonzero">
            <g id="Group-15" transform="translate(1071.000000, 44.000000)">
                <g id="Group-12">
                    <path d="M349.799429,218.481293 L349.799429,213.740929 C349.799429,212.989896 349.019568,212.160995 348.199714,212.160995 L341.799714,212.160995 C340.979861,212.160995 340.2,212.991025 340.2,213.740929 L340.2,218.481293 C340.2,219.232326 340.980432,220.061791 341.799714,220.061791 L348.199714,220.061791 C349.020139,220.061791 349.799429,219.231762 349.799429,218.481293 Z M348.199714,218.481293 L341.799714,218.481293 L341.799714,213.740929 L348.199714,213.740929 L348.199714,218.481293 Z M352.999429,212.950962 L352.999429,210.439996 C352.999429,209.646644 352.356115,209 351.563685,209 L348.999,209 C348.557251,209 348.199143,209.35368 348.199143,209.789967 C348.199143,210.226253 348.557251,210.579933 348.999,210.579933 L351.399143,210.579933 L351.399143,212.950398 C351.399041,213.232727 351.551453,213.493663 351.798967,213.634914 C352.046481,213.776166 352.351494,213.776274 352.59911,213.635197 C352.846726,213.49412 352.999327,213.233291 352.999429,212.950962 Z M352.199572,218.481293 C351.757823,218.481293 351.399714,218.834974 351.399714,219.27126 L351.399714,221.641725 L348.999572,221.641725 C348.566303,221.653164 348.22109,222.003345 348.22109,222.431409 C348.22109,222.859473 348.566303,223.209654 348.999572,223.221094 L351.564256,223.221658 C352.356686,223.221658 353,222.575014 353,221.781097 L353,219.270696 C352.999055,218.834667 352.64106,218.481603 352.199572,218.481293 Z M337,212.950962 C337,213.387249 337.358108,213.740929 337.799857,213.740929 C338.241606,213.740929 338.599714,213.387249 338.599714,212.950962 L338.599714,210.580498 L340.999857,210.580498 C341.441606,210.580498 341.799714,210.226818 341.799714,209.790531 C341.799714,209.354244 341.441606,209.000564 340.999857,209.000564 L338.435172,209.000564 C337.642742,209.000564 337,209.647208 337,210.440561 L337,212.950962 Z M340.999857,221.641725 L338.599714,221.641725 L338.599714,219.27126 C338.599714,218.834974 338.241606,218.481293 337.799857,218.481293 C337.358108,218.481293 337,218.834974 337,219.27126 L337,221.781661 C337,222.575014 337.642742,223.222222 338.435172,223.222222 L340.999857,223.222222 C341.441764,223.222222 341.8,222.868416 341.8,222.431973 C341.8,221.995531 341.441764,221.641725 340.999857,221.641725 Z" id="Shape"></path>
                </g>
            </g>
        </g>
    </g>
</svg>