<?xml version="1.0" encoding="UTF-8"?>
<svg width="18px" height="18px" viewBox="0 0 18 18" version="1.1" xmlns="http://www.w3.org/2000/svg" xmlns:xlink="http://www.w3.org/1999/xlink">
    <!-- Generator: Sketch 53.2 (72643) - https://sketchapp.com -->
    <title>zhuchiren-@1x</title>
    <desc>Created with Sketch.</desc>
    <g id="Page-1" stroke="none" stroke-width="1" fill="none" fill-rule="evenodd">
        <g id="画板" transform="translate(-108.000000, -67.000000)" fill="#FFAA33" fill-rule="nonzero">
            <g id="zhuchiren-" transform="translate(117.000000, 76.000000) rotate(-360.000000) translate(-117.000000, -76.000000) translate(108.000000, 67.000000)">
                <path d="M13.6221025,11.3950904 L16.6314167,14.3594178 C16.2261536,14.5294802 15.7811042,14.5816379 15.3475027,14.5098867 L13.3743296,12.5691082 C13.3959534,12.554692 13.4193792,12.5393749 13.441904,12.5267607 C13.4029144,12.1402958 13.4650094,11.7503313 13.6221025,11.3950904 L13.6221025,11.3950904 Z M15.2501956,15.5253264 C15.6927201,15.521828 16.0544216,15.8774885 16.0583856,16.3200184 L16.0655936,16.3939014 L16.0655936,16.4029115 C16.0786367,16.440171 16.0885814,16.4784438 16.0953263,16.5173399 C16.1043363,16.5614895 16.1088412,16.605639 16.1088412,16.6515906 L16.1160492,16.7254736 C16.1144325,16.9661338 16.0048154,17.1933436 15.8174545,17.344388 C15.6300936,17.4954324 15.3848016,17.554339 15.1492844,17.5048484 C14.7744378,17.433718 14.5025034,17.1070122 14.50057,16.7254736 L14.493362,16.6515906 L14.493362,16.6407785 C14.4657681,16.5613463 14.4511647,16.4779837 14.4501144,16.3939014 L14.4429065,16.3200184 C14.446871,15.8778428 14.8080217,15.5223276 15.2501956,15.5253264 L15.2501956,15.5253264 Z M13.0229426,12.9304138 L14.8717788,14.7468526 L11.6047807,17.7652406 C11.4616333,17.915174 11.2633691,18 11.0560764,18 C10.8487838,18 10.6505195,17.915174 10.5073721,17.7652406 L10.1424702,17.3868159 C9.8398498,17.0699393 9.8398498,16.5711212 10.1424702,16.2542446 L13.0229426,12.9295128 L13.0229426,12.9304138 Z M13.684271,6.19265096 C13.66643,6.35340278 13.6417807,6.51332577 13.6103896,6.67198899 L13.5923697,6.752179 C13.5609941,6.89571177 13.5237215,7.03789166 13.4806467,7.17835737 L13.4581219,7.25494333 C13.3977553,7.44192117 13.3270691,7.62540837 13.2463887,7.80456025 C13.1833192,7.94601903 13.1175468,8.08477478 13.0436654,8.21902547 L13.0094277,8.27669019 C12.9445563,8.39382167 12.8742789,8.50644808 12.7994965,8.61727248 L12.7175062,8.73981002 C12.6355159,8.8569415 12.5490207,8.96956791 12.4589214,9.0794913 L12.3652182,9.18851367 C12.2895349,9.27591177 12.2120495,9.35970583 12.1309602,9.44259887 L12.0336531,9.54171012 C11.8927061,9.67725948 11.7450588,9.80566428 11.5912659,9.92644196 C11.4808505,10.0140836 11.3672487,10.0976338 11.2506908,10.1769231 L11.2615027,10.1823292 C11.4507111,10.2634202 11.6354145,10.3517193 11.8174149,10.4454245 C12.0213455,10.551916 12.2206456,10.6670496 12.4147728,10.7905118 C12.4913572,10.8391665 12.5706445,10.886019 12.6454268,10.9373767 C12.6724566,10.9553969 12.6958824,10.9752192 12.7220112,10.9932394 L12.7280446,10.9986717 C12.8725572,11.1374633 12.9545028,11.3289988 12.9550946,11.5293674 L12.9623026,11.5996462 C12.9623026,12.0204185 12.6019057,12.3610008 12.1586175,12.3610008 C11.8719441,12.3632104 11.7079188,12.1445932 11.4585464,11.9672589 C10.5131136,11.4053227 9.36049906,11.1729708 8.26119834,11.1392032 C8.19272293,11.1410053 8.1260495,11.1482133 8.05667309,11.1482133 C7.98729668,11.1482133 7.92152424,11.1410053 7.85304883,11.1392032 C4.64281329,11.2374135 2.02543068,13.6350046 1.64160796,16.7155624 L1.62178613,16.7155624 C1.62035721,16.9370122 1.53459477,17.1401827 1.38336661,17.2893864 C1.23213845,17.4385901 1.02783315,17.5216042 0.815398026,17.5201656 C0.37287351,17.523664 0.011171983,17.1680035 0.00720793835,16.7254736 L0,16.6506896 C0,16.5470733 0.021623815,16.4479621 0.0585644991,16.3569599 L0.0630694605,16.3281275 C0.137710179,15.8278194 0.260824496,15.3359552 0.430674316,14.8594791 L0.446892178,14.8144285 C0.553209268,14.5234018 0.673942236,14.2422863 0.811794056,13.9674778 C0.825308941,13.9422495 0.837021841,13.9161202 0.849635733,13.8899909 C0.918111147,13.7584432 0.990190531,13.6286976 1.06587388,13.500754 C1.09290365,13.4539014 1.1226364,13.4079498 1.15146815,13.3619982 C1.27760707,13.1574686 1.41275592,12.9583451 1.55691468,12.7673307 C1.60466727,12.7042599 1.65151887,12.6402881 1.70107345,12.5781183 C1.77815805,12.4816876 1.85746665,12.387056 1.93893542,12.2942998 C2.54744479,11.6019293 3.26958247,11.0184175 4.07428715,10.568863 C4.32602986,10.4269477 4.58529709,10.2988152 4.85094251,10.1850322 L4.86445739,10.1778241 C4.70125561,10.0675317 4.54396551,9.94873456 4.39323842,9.82192464 C4.28336179,9.73076924 4.1769688,9.63549441 4.07428715,9.53630405 L3.99319784,9.45250999 C3.90827671,9.36666857 3.82624085,9.27801988 3.74722695,9.18671165 C3.71659321,9.15067119 3.68505848,9.11643276 3.65532573,9.08039231 C3.56486554,8.97016747 3.47860889,8.85655875 3.39674095,8.73981002 L3.31384966,8.61727248 C3.24068218,8.50751448 3.17155976,8.39511304 3.10662143,8.28029424 C3.09400754,8.25957098 3.08139364,8.23884772 3.07058174,8.21812446 C2.99713932,8.08353138 2.92950275,7.94585048 2.86785847,7.80546126 C2.85164061,7.76761878 2.83362076,7.7288753 2.81830389,7.69013181 C2.75855155,7.54827649 2.70474552,7.40398912 2.65702627,7.25764636 L2.6308975,7.17205029 C2.58885636,7.03386663 2.55218847,6.89410491 2.52097644,6.75308001 L2.50295659,6.67289 C2.47099466,6.5139852 2.44604305,6.35375042 2.42817423,6.19265096 C2.42366927,6.15570949 2.42096629,6.11876803 2.41736232,6.08092555 C2.40114957,5.9132178 2.39273124,5.74484777 2.39213454,5.5763592 C2.39213454,2.49580142 4.92842785,0 8.05667309,0 C11.1849183,0 13.7212116,2.49580142 13.7212116,5.57455718 C13.7212116,5.74574933 13.7113007,5.91333744 13.6950829,6.07912353 C13.6923799,6.11786702 13.6887759,6.15480848 13.684271,6.19265096 Z M8.0548711,1.59388906 C5.82041022,1.59388906 4.00941571,3.37699051 4.00941571,5.5763592 C4.00941571,7.77482687 5.82041022,9.55882933 8.0548711,9.55882933 C10.289332,9.55882933 12.1003265,7.77482687 12.1003265,5.5763592 C12.1003265,3.37699051 10.289332,1.59388906 8.0548711,1.59388906 Z M17.3296858,13.8962979 C17.2540464,13.9702786 17.1733639,14.0389204 17.0882198,14.1017285 L13.8860932,10.9481888 C13.9491627,10.8670978 14.0158361,10.7878088 14.0906185,10.7139259 C14.9912595,9.83455243 16.4290447,9.83455243 17.3296858,10.7139259 C17.7583204,11.1323818 18,11.7060787 18,12.3051119 C18,12.9041451 17.7583204,13.477842 17.3296858,13.8962979 L17.3296858,13.8962979 Z" id="形状"></path>
            </g>
        </g>
    </g>
</svg>