<?xml version="1.0" encoding="UTF-8"?>
<svg width="19px" height="14px" viewBox="0 0 19 14" version="1.1" xmlns="http://www.w3.org/2000/svg" xmlns:xlink="http://www.w3.org/1999/xlink">
    <!-- Generator: Sketch 53.2 (72643) - https://sketchapp.com -->
    <title>weibiaoti--copy@1x</title>
    <desc>Created with Sketch.</desc>
    <g id="Page-1" stroke="none" stroke-width="1" fill="none" fill-rule="evenodd">
        <g id="画板" transform="translate(-177.000000, -69.000000)" fill="#FFAA33" fill-rule="nonzero">
            <g id="weibiaoti--copy" transform="translate(177.000000, 69.000000)">
                <path d="M13.1464646,14 L2.11111111,14 C0.95959596,14 0,13.0666667 0,11.9466667 L0,2.05333333 C0,0.933333333 0.95959596,0 2.11111111,0 L13.2424242,0 C14.3939394,0 15.3535354,0.933333333 15.3535354,2.05333333 L15.3535354,3.64 L17.3686869,2.52 C17.9444444,2.24 18.6161616,2.42666667 18.9040404,2.98666667 C19,3.17333333 19,3.36 19,3.54666667 L19,10.2666667 C19,10.92 18.520202,11.3866667 17.8484848,11.3866667 C17.6565657,11.3866667 17.4717406,11.3582426 17.2727273,11.2933333 L15.2575758,10.08 L15.2575758,12.04 C15.2575758,13.16 14.2979798,14 13.1464646,14 Z M2.65325199,1.47655853 C2.07749441,1.47655853 1.50173684,1.9432252 1.50173684,2.59655853 L1.50173684,11.278277 C1.50173684,11.838277 1.98153482,12.398277 2.65325199,12.398277 L12.8412682,12.398277 C13.4170258,12.398277 13.9927834,11.9316103 13.9927834,11.278277 L13.8968238,7.87578657 L17.0635854,9.51072911 C17.2555046,9.51072911 17.3514642,9.41739577 17.3514642,9.32406244 L17.4474238,4.30769231 C17.2555046,4.21435897 17.159545,4.12102564 17.0635854,4.21435897 L13.8968238,5.9499999 L13.8968238,2.59655853 C13.8968238,2.03655853 13.4170258,1.47655853 12.7453086,1.47655853 L2.65325199,1.47655853 Z" id="形状"></path>
                <path d="M3.35294118,4.47058824 C3.35294118,5.08784766 3.85332881,5.58823529 4.47058824,5.58823529 C5.08784766,5.58823529 5.58823529,5.08784766 5.58823529,4.47058824 C5.58823529,3.85332881 5.08784766,3.35294118 4.47058824,3.35294118 C3.85332881,3.35294118 3.35294118,3.85332881 3.35294118,4.47058824 L3.35294118,4.47058824 Z" id="路径"></path>
            </g>
        </g>
    </g>
</svg>