<?xml version="1.0" encoding="UTF-8"?>
<svg width="26px" height="26px" viewBox="0 0 26 26" version="1.1" xmlns="http://www.w3.org/2000/svg" xmlns:xlink="http://www.w3.org/1999/xlink">
    <!-- Generator: Sketch 49 (51002) - http://www.bohemiancoding.com/sketch -->
    <title>了解</title>
    <desc>Created with Sketch.</desc>
    <defs></defs>
    <g id="Page-1" stroke="none" stroke-width="1" fill="none" fill-rule="evenodd">
        <g id="Artboard" transform="translate(-704.000000, -338.000000)" fill="#666666" fill-rule="nonzero">
            <g id="了解" transform="translate(704.000000, 338.000000)">
                <path d="M13,26 C5.80666667,26 0,20.1933333 0,13 C0,5.80666667 5.80666667,0 13,0 C20.1933333,0 26,5.80666667 26,13 C26,20.1933333 20.1933333,26 13,26 Z M13,1.73333333 C6.76,1.73333333 1.73333333,6.76 1.73333333,13 C1.73333333,19.24 6.76,24.2666667 13,24.2666667 C19.24,24.2666667 24.2666667,19.24 24.2666667,13 C24.2666667,6.76 19.24,1.73333333 13,1.73333333 Z" id="Shape"></path>
                <path d="M11.6527702,20.4285714 L13.9076732,20.4285714 L13.9076732,18.2528696 L11.6527702,18.2528696 L11.6527702,20.4285714 Z M13.6474921,16.5993361 L11.8262243,16.5993361 L11.8262243,15.9901396 C11.7394973,14.6847185 12.3465865,13.6403816 13.560765,12.8571289 C14.7749436,11.9868482 15.3820328,11.0295393 15.3820328,10.1592586 C15.2085787,8.94086554 14.5147625,8.24464094 13.2138569,8.15761286 C11.6527702,8.15761286 10.6987728,9.02789361 10.2651377,10.8554832 L8.35714286,10.4203428 C8.87750508,7.72247249 10.6120458,6.41705137 13.560765,6.50407944 C15.9891221,6.67813559 17.3767547,7.80950056 17.6369358,9.98520244 C17.7236628,11.3776516 16.8563924,12.6830728 15.1218517,13.7274097 C14.0811273,14.4236343 13.560765,15.2068869 13.6474921,16.1641958 L13.6474921,16.5993361 Z" id="Shape"></path>
            </g>
        </g>
    </g>
</svg>