<?xml version="1.0" encoding="UTF-8"?>
<svg width="40px" height="30px" viewBox="0 0 40 30" version="1.1" xmlns="http://www.w3.org/2000/svg" xmlns:xlink="http://www.w3.org/1999/xlink">
    <!-- Generator: Sketch 52.4 (67378) - http://www.bohemiancoding.com/sketch -->
    <title>分组 7 copy@1x</title>
    <desc>Created with Sketch.</desc>
    <g id="Page-1" stroke="none" stroke-width="1" fill="none" fill-rule="evenodd">
        <g id="分组-7-copy">
            <g id="分组-3" fill="#FFC779" fill-rule="nonzero">
                <g id="分组-10-copy-3">
                    <g id="shipin">
                        <path d="M37.4029812,4.2062301 C38.4121917,3.53190738 39.2674549,4.09384298 39.2674549,5.21771418 L39.2674549,24.0238255 C39.2674549,25.2600838 38.4121917,25.7096323 37.4029812,25.0353096 L31.8181128,21.5513089 C30.7832444,20.8769862 29.9536391,20.2026634 29.9536391,19.0787923 L29.9536391,10.0503603 C29.9536391,8.92648912 30.8089022,8.36455353 31.8181128,7.69023081 L37.4029812,4.2062301 Z M26,4.1133721e-05 L3.93421051,4.1133721e-05 C2.89532661,-0.00493753938 1.89718767,0.44221663 1.15937792,1.24313256 C0.421568177,2.04404849 0.00452670939,3.13311763 0,4.27075168 L0,25.2871431 C0.00452670939,26.4247771 0.421568177,27.5138462 1.15937792,28.3147622 C1.89718767,29.1156781 2.89532661,29.5628323 3.93421051,29.5578536 L26,29.5578536 C27.0388839,29.5628323 28.0370228,29.1156781 28.7748326,28.3147622 C29.5126424,27.5138463 29.9296838,26.4247771 29.9342105,25.2871431 L29.9342105,4.27075168 C29.9296838,3.13311762 29.5126424,2.04404847 28.7748326,1.24313254 C28.0370228,0.442216613 27.0388839,-0.00493755106 26,4.1133721e-05 Z" id="形状"></path>
                    </g>
                </g>
            </g>
            <path d="M6.15317441,10.5047029 L7.58188535,10.5047029 L7.58188535,16.1128572 L10.9681158,16.1128572 L10.9681158,17.3421053 L6.15317441,17.3421053 L6.15317441,10.5047029 Z M13.2085943,11.6829256 L11.8680182,11.6829256 L11.8680182,10.4629549 L13.2085943,10.4629549 L13.2085943,11.6829256 Z M11.8680182,12.2859529 L13.2085943,12.2859529 L13.2085943,17.3421053 L11.8680182,17.3421053 L11.8680182,12.2859529 Z M17.6060553,12.2859529 L19.0254889,12.2859529 L17.2024908,17.3421053 L15.8062506,17.3421053 L13.9925299,12.2859529 L15.4769049,12.2859529 L16.5298834,16.0154451 L17.6060553,12.2859529 Z M21.7669439,13.2415193 C21.4607901,13.2415193 21.2234471,13.3373843 21.0549078,13.529117 C20.8863686,13.7208497 20.7804533,13.9806127 20.7371588,14.3084139 L22.7920904,14.3084139 C22.7704432,13.9589655 22.6645279,13.6937907 22.4743414,13.5128816 C22.2841549,13.3319725 22.0483581,13.2415193 21.7669439,13.2415193 Z M21.7669439,12.1514314 C22.187519,12.1514314 22.56634,12.2302881 22.9034185,12.3880037 C23.2404971,12.5457193 23.5188146,12.7946589 23.7383795,13.1348299 C23.9362971,13.4347988 24.0646324,13.7826957 24.1233893,14.178531 C24.1574063,14.4104658 24.1713222,14.7444468 24.1651373,15.1804842 L20.7046881,15.1804842 C20.7232429,15.6876482 20.8825023,16.0432761 21.1824713,16.2473787 C21.3649266,16.3741697 21.5844882,16.4375642 21.8411627,16.4375642 C22.1132995,16.4375642 22.3344073,16.3602538 22.5044928,16.2056307 C22.5972667,16.1221341 22.6792157,16.0061685 22.7503424,15.8577303 L24.1001959,15.8577303 C24.0661788,16.1576992 23.9100117,16.4623023 23.63169,16.7715486 C23.1987452,17.2632503 22.5926314,17.5090975 21.8133307,17.5090975 C21.1700983,17.5090975 20.6026398,17.3019055 20.1109381,16.8875154 C19.6192364,16.4731253 19.3733893,15.7989784 19.3733893,14.8650545 C19.3733893,13.9898873 19.5952702,13.3188329 20.0390387,12.8518709 C20.4828072,12.3849089 21.0587698,12.1514314 21.7669439,12.1514314 Z" id="Live" fill="#FFFFFF"></path>
        </g>
    </g>
</svg>