<?xml version="1.0" encoding="UTF-8"?>
<svg width="17px" height="18px" viewBox="0 0 17 18" version="1.1" xmlns="http://www.w3.org/2000/svg" xmlns:xlink="http://www.w3.org/1999/xlink">
    <!-- Generator: Sketch 52.4 (67378) - http://www.bohemiancoding.com/sketch -->
    <title>Combined Shape@1x</title>
    <desc>Created with Sketch.</desc>
    <g id="Page-1" stroke="none" stroke-width="1" fill="none" fill-rule="evenodd">
        <g id="画板" transform="translate(-278.000000, -139.000000)" fill="#FBB51B">
            <path d="M278.944444,144.785714 C279.466047,144.785714 279.888889,145.208556 279.888889,145.730159 L279.888889,156.055556 C279.888889,156.577158 279.466047,157 278.944444,157 C278.422842,157 278,156.577158 278,156.055556 L278,145.730159 C278,145.208556 278.422842,144.785714 278.944444,144.785714 Z M283.981481,148.642857 C284.503084,148.642857 284.925926,149.065699 284.925926,149.587302 L284.925926,156.055556 C284.925926,156.577158 284.503084,157 283.981481,157 C283.459879,157 283.037037,156.577158 283.037037,156.055556 L283.037037,149.587302 C283.037037,149.065699 283.459879,148.642857 283.981481,148.642857 Z M289.018519,139 C289.540121,139 289.962963,139.422842 289.962963,139.944444 L289.962963,156.055556 C289.962963,156.577158 289.540121,157 289.018519,157 C288.496916,157 288.074074,156.577158 288.074074,156.055556 L288.074074,139.944444 C288.074074,139.422842 288.496916,139 289.018519,139 Z M294.055556,146.071429 C294.577158,146.071429 295,146.494271 295,147.015873 L295,156.055556 C295,156.577158 294.577158,157 294.055556,157 C293.533953,157 293.111111,156.577158 293.111111,156.055556 L293.111111,147.015873 C293.111111,146.494271 293.533953,146.071429 294.055556,146.071429 Z" id="Combined-Shape"></path>
        </g>
    </g>
</svg>