<?xml version="1.0" encoding="UTF-8"?>
<svg width="17px" height="18px" viewBox="0 0 17 18" version="1.1" xmlns="http://www.w3.org/2000/svg" xmlns:xlink="http://www.w3.org/1999/xlink">
    <!-- Generator: Sketch 49 (51002) - http://www.bohemiancoding.com/sketch -->
    <title>Combined Shape</title>
    <desc>Created with Sketch.</desc>
    <defs></defs>
    <g id="Page-1" stroke="none" stroke-width="1" fill="none" fill-rule="evenodd">
        <g id="web前台自动播放录像-主讲老师-无讲义-copy" transform="translate(-864.000000, -14.000000)" fill="#FFFFFF">
            <path d="M864.944444,19.7857143 C865.466047,19.7857143 865.888889,20.2085565 865.888889,20.7301587 L865.888889,31.0555556 C865.888889,31.5771578 865.466047,32 864.944444,32 C864.422842,32 864,31.5771578 864,31.0555556 L864,20.7301587 C864,20.2085565 864.422842,19.7857143 864.944444,19.7857143 Z M869.981481,23.6428571 C870.503084,23.6428571 870.925926,24.0656993 870.925926,24.5873016 L870.925926,31.0555556 C870.925926,31.5771578 870.503084,32 869.981481,32 C869.459879,32 869.037037,31.5771578 869.037037,31.0555556 L869.037037,24.5873016 C869.037037,24.0656993 869.459879,23.6428571 869.981481,23.6428571 Z M875.018519,14 C875.540121,14 875.962963,14.4228422 875.962963,14.9444444 L875.962963,31.0555556 C875.962963,31.5771578 875.540121,32 875.018519,32 C874.496916,32 874.074074,31.5771578 874.074074,31.0555556 L874.074074,14.9444444 C874.074074,14.4228422 874.496916,14 875.018519,14 Z M880.055556,21.0714286 C880.577158,21.0714286 881,21.4942708 881,22.015873 L881,31.0555556 C881,31.5771578 880.577158,32 880.055556,32 C879.533953,32 879.111111,31.5771578 879.111111,31.0555556 L879.111111,22.015873 C879.111111,21.4942708 879.533953,21.0714286 880.055556,21.0714286 Z" id="Combined-Shape"></path>
        </g>
    </g>
</svg>