<!-- Generated by IcoMoon.io -->
<svg version="1.1" xmlns="http://www.w3.org/2000/svg" width="30" height="32" viewBox="0 0 30 32">
<title>live-exercises</title>
<path d="M26 10.182h0.182v11.636h-0.182v6.194c0 2.203-1.787 3.988-4.006 3.988h-17.989c-2.212 0-4.006-1.789-4.006-3.988v-24.024c0-2.203 1.787-3.988 4.006-3.988h17.989c2.212 0 4.006 1.789 4.006 3.988v6.194zM24 10.182v-6.168c0-1.114-0.891-2.014-1.991-2.014h-18.018c-1.101 0-1.991 0.902-1.991 2.014v23.973c0 1.114 0.891 2.014 1.991 2.014h18.018c1.101 0 1.991-0.902 1.991-2.014v-6.168h2.182v-11.636h-2.182zM4.863 8c-0.476 0-0.863 0.448-0.863 1s0.387 1 0.863 1h10.274c0.477 0 0.863-0.448 0.863-1s-0.386-1-0.863-1h-10.274zM4.955 14c-0.527 0-0.955 0.448-0.955 1s0.428 1 0.955 1h8.090c0.527 0 0.955-0.448 0.955-1s-0.428-1-0.955-1h-8.090zM5.052 20c-0.581 0-1.052 0.448-1.052 1s0.471 1 1.052 1h5.177c0.581 0 1.052-0.448 1.052-1s-0.471-1-1.052-1h-5.177zM17.429 20.241l9.264-8.999c0 0 1.279-0.413 1.982 0.441s0.245 2.096 0.245 2.096l-9.263 8.999-2.227-2.537zM16.975 20.706l2.219 2.474-3.892 1.26 1.673-3.733z"></path>
</svg>
