<?xml version="1.0" encoding="UTF-8"?>
<svg width="16px" height="17px" viewBox="0 0 16 17" version="1.1" xmlns="http://www.w3.org/2000/svg" xmlns:xlink="http://www.w3.org/1999/xlink">
    <!-- Generator: Sketch 49 (51002) - http://www.bohemiancoding.com/sketch -->
    <title>tuichu</title>
    <desc>Created with Sketch.</desc>
    <defs></defs>
    <g id="Page-1" stroke="none" stroke-width="1" fill="none" fill-rule="evenodd">
        <g id="助教-关闭视频后页面" transform="translate(-1357.000000, -14.000000)" fill="#FFFFFF" fill-rule="nonzero">
            <g id="tuichu" transform="translate(1357.000000, 14.000000)">
                <path d="M8.19673422,9.56285658 C8.57236601,9.56285658 8.87979542,9.29113167 8.8797954,8.95893127 L8.8797954,0.603925313 C8.8797954,0.271724913 8.57236601,0 8.19673422,0 C7.82100365,0 7.51367303,0.271724913 7.51367303,0.603925313 L7.51367303,8.9588876 C7.51367303,9.291088 7.82100365,9.56285656 8.19673422,9.56285658 Z" id="Shape"></path>
                <path d="M14.6136176,4.32075212 C13.9140544,3.12574664 12.9224983,2.13533942 11.7353966,1.44586585 C11.450858,1.28293148 11.089205,1.38858799 10.9291038,1.67816182 C10.7720032,1.96472562 10.8698642,2.32972478 11.1484875,2.49566916 C13.2352469,3.7022559 14.5247582,5.95576679 14.5247582,8.39925872 C14.5247582,12.1489738 11.5368454,15.1867944 7.85224592,15.183828 C4.16773218,15.180818 1.18277709,12.143041 1.18573478,8.39323865 C1.18573478,7.17757818 1.50876629,5.98294433 2.11650787,4.93615104 C2.70937527,3.91945807 3.55116038,3.07787048 4.56191977,2.49566916 C4.84650127,2.33273479 4.95027772,1.96472562 4.79017649,1.67510816 C4.63007529,1.3854907 4.26846519,1.27987782 3.98388371,1.44281218 C3.98092601,1.44582222 3.97796832,1.44582222 3.97501062,1.44883225 C1.51768223,2.8696984 0,5.52437245 0,8.40226874 C0.0029576972,12.8186842 3.52154058,16.3934684 7.85816132,16.3934684 C12.1978683,16.3904584 15.7104072,12.8096977 15.7104072,8.39624868 C15.7103644,6.95732235 15.3310081,5.55154998 14.6136176,4.32075212 Z" id="Shape"></path>
            </g>
        </g>
    </g>
</svg>