<!-- Generated by IcoMoon.io -->
<svg version="1.1" xmlns="http://www.w3.org/2000/svg" width="32" height="32" viewBox="0 0 32 32">
<title>my-class</title>
<path d="M21 11.292v-8.305c0-1.658-1.344-2.986-3.002-2.986h-1.997c-1.645 0-3.002 1.337-3.002 2.986v3.187c-0.313-0.112-0.65-0.173-1.002-0.173h-1.997c-1.645 0-3.002 1.339-3.002 2.991v7.18c-0.313-0.111-0.65-0.171-1.002-0.171h-1.997c-1.645 0-3.002 1.345-3.002 3.003v10.997h20v-17.98c0.017 0.138 0.044 0.276 0.081 0.413l4.561 17.022c0.051 0.192 0.12 0.374 0.204 0.545h-24.853c-0.54 0-0.993 0.448-0.993 1 0 0.536 0.445 1 0.993 1h30.014c0.54 0 0.993-0.448 0.993-1 0-0.465-0.335-0.876-0.781-0.977 0.321-0.633 0.416-1.382 0.218-2.122l-4.561-17.022c-0.428-1.596-2.071-2.539-3.671-2.111-1.224 0.328-2.060 1.351-2.205 2.522zM3 19.52c0-0.839 0.661-1.52 1.489-1.52h1.021c0.823 0 1.489 0.68 1.489 1.52v10.48h-4v-10.48zM9 9.512c0-0.835 0.661-1.512 1.489-1.512h1.021c0.823 0 1.489 0.683 1.489 1.512v20.488h-4v-20.488zM15 3.505c0-0.831 0.661-1.505 1.489-1.505h1.021c0.823 0 1.489 0.665 1.489 1.505v26.495h-4v-26.495zM22.946 12.056c-0.158-0.589 0.206-1.198 0.775-1.35 0.586-0.157 1.189 0.193 1.346 0.782l4.605 17.186c0.158 0.589-0.206 1.198-0.775 1.35-0.586 0.157-1.189-0.193-1.346-0.782l-4.605-17.186z"></path>
</svg>
