<?xml version="1.0" encoding="UTF-8"?>
<svg width="16px" height="16px" viewBox="0 0 16 16" version="1.1" xmlns="http://www.w3.org/2000/svg" xmlns:xlink="http://www.w3.org/1999/xlink">
    <!-- Generator: Sketch 49 (51002) - http://www.bohemiancoding.com/sketch -->
    <title>Star 5</title>
    <desc>Created with Sketch.</desc>
    <defs></defs>
    <g id="Page-1" stroke="none" stroke-width="1" fill="none" fill-rule="evenodd">
        <g id="web前台自动播放录像-主讲老师-无讲义" transform="translate(-1353.000000, -14.000000)" fill="#FFFFFF">
            <path d="M1362.48864,27.8138856 L1361.72268,29.9677996 C1361.48464,29.9891132 1361.24359,30 1361,30 C1360.75641,30 1360.51536,29.9891132 1360.27732,29.9677996 L1359.51136,27.8138856 C1358.95281,27.671296 1358.4256,27.450334 1357.94214,27.1634039 L1355.87723,28.1449509 C1355.50659,27.8356309 1355.16437,27.4934073 1354.85505,27.1227684 L1355.8366,25.057859 C1355.54967,24.5744008 1355.3287,24.0471932 1355.18611,23.4886406 L1353.0322,22.7226788 C1353.01089,22.4846353 1353,22.243589 1353,22 C1353,21.756411 1353.01089,21.5153647 1353.0322,21.2773212 L1355.18611,20.5113594 C1355.3287,19.9528068 1355.54967,19.4255992 1355.8366,18.942141 L1354.85505,16.8772316 C1355.16437,16.5065927 1355.50659,16.1643691 1355.87723,15.8550491 L1357.94214,16.8365961 C1358.4256,16.549666 1358.95281,16.328704 1359.51136,16.1861144 L1360.27732,14.0322004 C1360.51536,14.0108868 1360.75641,14 1361,14 C1361.24359,14 1361.48464,14.0108868 1361.72268,14.0322004 L1362.48864,16.1861144 C1363.04719,16.328704 1363.5744,16.549666 1364.05786,16.8365961 L1366.12277,15.8550491 C1366.49341,16.1643691 1366.83563,16.5065927 1367.14495,16.8772316 L1366.1634,18.942141 C1366.45033,19.4255992 1366.6713,19.9528068 1366.81389,20.5113594 L1368.9678,21.2773212 C1368.98911,21.5153647 1369,21.756411 1369,22 C1369,22.243589 1368.98911,22.4846353 1368.9678,22.7226788 L1366.81389,23.4886406 C1366.6713,24.0471932 1366.45033,24.5744008 1366.1634,25.057859 L1367.14495,27.1227684 C1366.83563,27.4934073 1366.49341,27.8356309 1366.12277,28.1449509 L1364.05786,27.1634039 C1363.5744,27.450334 1363.04719,27.671296 1362.48864,27.8138856 L1362.48864,27.8138856 L1362.48864,27.8138856 Z M1361,25 C1362.65685,25 1364,23.6568542 1364,22 C1364,20.3431458 1362.65685,19 1361,19 C1359.34315,19 1358,20.3431458 1358,22 C1358,23.6568542 1359.34315,25 1361,25 L1361,25 Z" id="Star-5"></path>
        </g>
    </g>
</svg>