<!-- Generated by IcoMoon.io -->
<svg version="1.1" xmlns="http://www.w3.org/2000/svg" width="32" height="32" viewBox="0 0 32 32">
<title>no-chat</title>
<path d="M16 32v0c-8.837 0-16-7.163-16-16s7.163-16 16-16c8.837 0 16 7.163 16 16s-7.163 16-16 16zM16 30c7.732 0 14-6.268 14-14s-6.268-14-14-14c-7.732 0-14 6.268-14 14s6.268 14 14 14v0zM10 14c1.105 0 2-0.895 2-2s-0.895-2-2-2c-1.105 0-2 0.895-2 2s0.895 2 2 2v0zM17.414 22.642l2.125-2.125c0.4-0.4 0.387-1.020-0.003-1.411-0.379-0.379-1.022-0.392-1.411-0.003l-2.125 2.125-2.125-2.125c-0.389-0.389-1.032-0.376-1.411 0.003-0.391 0.391-0.403 1.011-0.003 1.411l2.125 2.125-2.125 2.125c-0.4 0.4-0.387 1.020 0.003 1.411 0.379 0.379 1.022 0.392 1.411 0.003l2.125-2.125 2.125 2.125c0.389 0.389 1.032 0.376 1.411-0.003 0.391-0.391 0.403-1.011 0.003-1.411l-2.125-2.125zM22 14c-1.105 0-2-0.895-2-2s0.895-2 2-2c1.105 0 2 0.895 2 2s-0.895 2-2 2z"></path>
</svg>
