<?xml version="1.0" encoding="UTF-8"?>
<svg width="15px" height="17px" viewBox="0 0 15 17" version="1.1" xmlns="http://www.w3.org/2000/svg" xmlns:xlink="http://www.w3.org/1999/xlink">
    <!-- Generator: Sketch 49 (51002) - http://www.bohemiancoding.com/sketch -->
    <title>jushouxin</title>
    <desc>Created with Sketch.</desc>
    <defs></defs>
    <g id="Page-1" stroke="none" stroke-width="1" fill="none" fill-rule="evenodd">
        <g id="pc端-1.2-连麦页面02" transform="translate(-1341.000000, -290.000000)" fill="#FFAA33" fill-rule="nonzero">
            <g id="jushouxin" transform="translate(1341.000000, 290.000000)">
                <path d="M14.8026334,15.1459463 L1.18826109,1.20286598 C0.915477677,0.923326706 0.469104814,0.923326706 0.204587562,1.20286598 C-0.068195854,1.47393437 -0.068195854,1.93136228 0.204587562,2.21090156 L13.8106937,16.1539819 C14.0834771,16.4335212 14.52985,16.4335212 14.7943672,16.1539819 C15.0671507,15.8744426 15.0671507,15.4254856 14.8026334,15.1459463 Z M8.26409758,6.4209325 L8.26409758,0.923326706 C8.26409758,0.415073473 7.86732171,0 7.37135186,0 C6.87538201,0 6.47860613,0.415073473 6.47860613,0.923326706 L6.47860613,4.58274998 L8.26409758,6.4209325 Z" id="Shape"></path>
                <path d="M6.92700675,7.09204343 L6.92700675,7.22168206 L6.31092744,7.22168206 L6.31092744,6.50056717 L4.47956839,4.74234322 L4.47956839,9.61189434 C4.47956839,9.61189434 2.90983206,7.83746556 2.80011931,7.76454383 C1.91397783,7.16496516 0.909684159,7.88608005 1.58483957,9.0285205 C1.97305393,9.68481608 5.00281383,14.1492465 5.00281383,14.1492465 C5.45854373,14.5948793 6.07462305,15 6.73289957,15 L11.2480014,15 C12.2776134,15 13.1299971,14.2950899 13.4760142,13.3795171 L6.92700675,7.09204343 Z M13.6363636,11.5969859 L13.6363636,3.99692108 C13.6363636,3.51077621 13.2312704,3.12186031 12.7164644,3.12186031 C12.2100978,3.12186031 11.7965651,3.51077621 11.7965651,3.99692108 L11.7965651,7.22168206 L11.1889253,7.22168206 L11.1889253,2.23869713 C11.1889253,1.75255226 10.7753926,1.36363636 10.2774655,1.36363636 C9.77953836,1.36363636 9.36600567,1.76065468 9.36600567,2.23869713 L9.36600567,7.22168206 L9.07906462,7.22168206 L13.6363636,11.5969859 Z M6.31092744,4.5640901 L6.31092744,3.12186031 C6.31092744,2.63571544 5.89739475,2.24679955 5.39946764,2.24679955 C4.99437439,2.24679955 4.64835724,2.50607681 4.53020504,2.85448064 L6.31092744,4.5640901 Z" id="Shape"></path>
            </g>
        </g>
    </g>
</svg>