<?xml version="1.0" encoding="UTF-8"?>
<svg width="14px" height="15px" viewBox="0 0 14 15" version="1.1" xmlns="http://www.w3.org/2000/svg" xmlns:xlink="http://www.w3.org/1999/xlink">
    <!-- Generator: Sketch 49 (51002) - http://www.bohemiancoding.com/sketch -->
    <title>Combined Shape</title>
    <desc>Created with Sketch.</desc>
    <defs></defs>
    <g id="Page-1" stroke="none" stroke-width="1" fill="none" fill-rule="evenodd">
        <g id="直播预告" transform="translate(-1030.000000, -696.000000)" fill="#FBB51B">
            <g id="Group-12-Copy" transform="translate(358.000000, 672.000000)">
                <g id="Group-14">
                    <path d="M672.777778,28.7647059 C673.207333,28.7647059 673.555556,29.1129289 673.555556,29.5424837 L673.555556,38.0457516 C673.555556,38.4753064 673.207333,38.8235294 672.777778,38.8235294 C672.348223,38.8235294 672,38.4753064 672,38.0457516 L672,29.5424837 C672,29.1129289 672.348223,28.7647059 672.777778,28.7647059 Z M676.925926,31.9411765 C677.355481,31.9411765 677.703704,32.2893994 677.703704,32.7189542 L677.703704,38.0457516 C677.703704,38.4753064 677.355481,38.8235294 676.925926,38.8235294 C676.496371,38.8235294 676.148148,38.4753064 676.148148,38.0457516 L676.148148,32.7189542 C676.148148,32.2893994 676.496371,31.9411765 676.925926,31.9411765 Z M681.074074,24 C681.503629,24 681.851852,24.348223 681.851852,24.7777778 L681.851852,38.0457516 C681.851852,38.4753064 681.503629,38.8235294 681.074074,38.8235294 C680.644519,38.8235294 680.296296,38.4753064 680.296296,38.0457516 L680.296296,24.7777778 C680.296296,24.348223 680.644519,24 681.074074,24 Z M685.222222,29.8235294 C685.651777,29.8235294 686,30.1717524 686,30.6013072 L686,38.0457516 C686,38.4753064 685.651777,38.8235294 685.222222,38.8235294 C684.792667,38.8235294 684.444444,38.4753064 684.444444,38.0457516 L684.444444,30.6013072 C684.444444,30.1717524 684.792667,29.8235294 685.222222,29.8235294 Z" id="Combined-Shape"></path>
                </g>
            </g>
        </g>
    </g>
</svg>