<?xml version="1.0" encoding="UTF-8"?>
<svg width="18px" height="14px" viewBox="0 0 18 14" version="1.1" xmlns="http://www.w3.org/2000/svg" xmlns:xlink="http://www.w3.org/1999/xlink">
    <!-- Generator: Sketch 52.4 (67378) - http://www.bohemiancoding.com/sketch -->
    <title>分组 2@1x</title>
    <desc>Created with Sketch.</desc>
    <g id="Page-1" stroke="none" stroke-width="1" fill="none" fill-rule="evenodd">
        <g id="画板" transform="translate(-144.000000, -53.000000)" fill-rule="nonzero">
            <g id="分组-2" transform="translate(143.000000, 53.000000)">
                <g id="分组-copy" fill="#FFC779">
                    <g id="kaoshi-xuanzhong-copy">
                        <path d="M3.74488255,0 L16.206421,0 C17.7358249,9.71445147e-17 18.9756518,1.13963882 18.9756518,2.54545454 L18.9756518,11.4545455 C18.9756518,12.8603612 17.7358249,14 16.206421,14 L3.74488255,14 C2.21547862,14 0.975651778,12.8603612 0.975651778,11.4545455 L0.975651778,2.54545454 C0.975651778,1.13963882 2.21547862,2.91433544e-16 3.74488255,0 Z" id="形状"></path>
                    </g>
                </g>
                <path d="M8.77922903,4.0986015 C8.34924805,3.86175512 8,4.0660407 8,4.55668289 L8,9.68121771 C8,10.1682916 8.348802,10.3765915 8.77922903,10.1392991 L13.4719987,7.54915431 C13.9010876,7.31186189 13.9019797,6.92648475 13.4719987,6.6887463 L8.77922903,4.0986015 Z" id="形状" fill="#FFFFFF"></path>
            </g>
        </g>
    </g>
</svg>