<!-- Generated by IcoMoon.io -->
<svg version="1.1" xmlns="http://www.w3.org/2000/svg" width="35" height="32" viewBox="0 0 35 32">
<title>eye-read</title>
<path d="M17.455 29.091c-8.76 0-17.455-10.907-17.455-13.091 0-2.188 8.733-13.091 17.455-13.091 8.695 0 17.455 10.909 17.455 13.091 0 2.17-8.717 13.091-17.455 13.091zM17.455 5.091c-7.631 0-15.273 9.086-15.273 10.909 0 1.82 7.608 10.909 15.273 10.909 7.645 0 15.273-9.1 15.273-10.909 0-1.819-7.665-10.909-15.273-10.909zM17.455 21.455c-3.012 0-5.455-2.441-5.455-5.454 0-3.012 2.443-5.455 5.455-5.455 3.013 0 5.455 2.443 5.455 5.455 0 3.013-2.441 5.454-5.455 5.454zM17.455 12.727c-1.808 0-3.273 1.465-3.273 3.273s1.465 3.273 3.273 3.273c1.808 0 3.273-1.465 3.273-3.273s-1.465-3.273-3.273-3.273v0z"></path>
</svg>
