<?xml version="1.0" encoding="UTF-8"?>
<svg width="40px" height="28px" viewBox="0 0 40 28" version="1.1" xmlns="http://www.w3.org/2000/svg" xmlns:xlink="http://www.w3.org/1999/xlink">
    <!-- Generator: Sketch 52.4 (67378) - http://www.bohemiancoding.com/sketch -->
    <title>shipin@1x</title>
    <desc>Created with Sketch.</desc>
    <g id="Page-1" stroke="none" stroke-width="1" fill="none" fill-rule="evenodd">
        <g id="shipin" fill="#FFC779" fill-rule="nonzero">
            <path d="M38.0925,4.2 C39.125,3.57 40,4.095 40,5.145 L40,22.715 C40,23.87 39.125,24.29 38.0925,23.66 L32.37875,20.405 C31.32,19.775 30.6251022,19.068555 30.6251022,18.018555 L30.6251022,9.58355501 C30.6251022,8.53355501 31.34625,8.085 32.37875,7.455 L38.0925,4.2 Z M26.6,0.0349999863 L4.02499999,0.0349999863 C2.96214184,0.0303485576 1.94096893,0.448111625 1.1861328,1.19638396 C0.431296674,1.9446563 0.00463117192,2.96214176 0,4.02499999 L0,23.66 C0.00463117192,24.7228582 0.431296674,25.7403437 1.1861328,26.488616 C1.94096893,27.2368883 2.96214184,27.6546514 4.02499999,27.65 L26.6,27.65 C27.6628581,27.6546514 28.6840311,27.2368884 29.4388672,26.488616 C30.1937033,25.7403437 30.6203688,24.7228582 30.625,23.66 L30.625,4.02499999 C30.6203688,2.96214175 30.1937033,1.94465628 29.4388672,1.19638395 C28.6840311,0.448111609 27.6628581,0.0303485467 26.6,0.0349999863 Z M7.58625,12.285 C5.65325338,12.285 4.08625001,10.7179966 4.08625001,8.78500001 C4.08625001,6.8520034 5.65325338,5.28500003 7.58625,5.28500003 C9.51924662,5.28500003 11.08625,6.8520034 11.08625,8.78500001 C11.08625,10.7179966 9.51924662,12.285 7.58625,12.285 Z" id="形状"></path>
        </g>
    </g>
</svg>