<?xml version="1.0" encoding="UTF-8"?>
<svg width="14px" height="27px" viewBox="0 0 14 27" version="1.1" xmlns="http://www.w3.org/2000/svg" xmlns:xlink="http://www.w3.org/1999/xlink">
    <!-- Generator: Sketch 49 (51002) - http://www.bohemiancoding.com/sketch -->
    <title>右可点击</title>
    <desc>Created with Sketch.</desc>
    <defs></defs>
    <g id="Page-1" stroke="none" stroke-width="1" fill="none" fill-rule="evenodd">
        <g id="Artboard" transform="translate(-70.000000, -206.000000)" fill="#999999" fill-rule="nonzero">
            <g id="右可点击" transform="translate(70.000000, 206.000000)">
                <path d="M13.1988869,12.3462283 C13.3830122,12.3462283 13.6285127,12.4076034 13.7512629,12.5917288 C14.0581385,12.8986043 14.0581385,13.3896053 13.7512629,13.6964809 L1.4148643,26.0328795 C1.1079887,26.3397551 0.555612651,26.3397551 0.248737052,26.0328795 C-0.0581385459,25.7260039 -0.0581385462,25.235003 0.248737052,24.9281274 L12.5851357,12.5917288 C12.769261,12.4076034 12.9533864,12.3462283 13.1988869,12.3462283 Z" id="Shape"></path>
                <path d="M0.801113104,0.00982962009 C0.985238445,0.00982962009 1.23073893,0.0712047336 1.35348916,0.255330074 L13.7512629,12.5917288 C14.0581385,12.8986043 14.0581385,13.3896053 13.7512629,13.6964809 C13.4443873,14.0033564 12.9533864,14.0033565 12.6465108,13.6964809 L0.310112166,1.36008221 C0.00323656769,1.05320661 0.00323656738,0.562205672 0.310112166,0.255330074 C0.432862393,0.0712047333 0.616987764,0.00982958921 0.801113104,0.00982962009 Z" id="Shape"></path>
            </g>
        </g>
    </g>
</svg>