<!-- Generated by IcoMoon.io -->
<svg version="1.1" xmlns="http://www.w3.org/2000/svg" width="32" height="32" viewBox="0 0 32 32">
<title>silent</title>
<path d="M28.171 16.4l3.313-3.948c0.348-0.414 0.304-1.059-0.119-1.414-0.411-0.345-1.056-0.297-1.413 0.129l-3.086 3.678-3.086-3.678c-0.357-0.426-1.003-0.473-1.413-0.129-0.423 0.355-0.467 1-0.119 1.414l3.313 3.948-3.313 3.948c-0.348 0.414-0.304 1.059 0.119 1.414 0.411 0.345 1.056 0.297 1.413-0.128l3.086-3.678 3.086 3.678c0.357 0.426 1.003 0.473 1.413 0.128 0.423-0.355 0.467-1 0.119-1.414l-3.313-3.948zM15.995 1.734c-1.793 1.396-6.513 5.601-7.306 6.309h-6.026c-1.468 0-2.663 1.205-2.663 2.686v9.659c0 1.481 1.195 2.686 2.663 2.686h5.166c1.064 0.967 6.163 5.589 8.157 7.183 0.286 0.228 0.613 0.344 0.951 0.344 0.237 0 0.479-0.057 0.715-0.172 0.853-0.416 1.547-1.611 1.547-2.664v-23.531c0-1.045-0.688-2.236-1.534-2.655-0.571-0.283-1.18-0.226-1.671 0.156zM16.6 28.304c-2.163-1.741-7.804-6.846-7.861-6.898-0.158-0.171-0.382-0.278-0.631-0.278h-5.327c-0.473 0-0.858-0.386-0.858-0.86v-9.277c0-0.474 0.385-0.86 0.858-0.86h5.976c0.173 0 0.333-0.052 0.468-0.14 0.148-0.027 0.291-0.094 0.413-0.201 0.051-0.046 5.060-4.496 6.961-5.99 0.18 0.161 0.737-0.165 0.721 0.95v22.6c0.025 1.298-0.539 0.789-0.719 0.954z"></path>
</svg>
