<!-- Generated by IcoMoon.io -->
<svg version="1.1" xmlns="http://www.w3.org/2000/svg" width="32" height="32" viewBox="0 0 32 32">
<title>smile</title>
<path d="M16 30v0c-7.732 0-14-6.268-14-14s6.268-14 14-14c7.732 0 14 6.268 14 14s-6.268 14-14 14zM16 28.25c6.765 0 12.25-5.485 12.25-12.25s-5.485-12.25-12.25-12.25c-6.765 0-12.25 5.485-12.25 12.25s5.485 12.25 12.25 12.25v0zM10.75 14.25c0.966 0 1.75-0.784 1.75-1.75s-0.784-1.75-1.75-1.75c-0.966 0-1.75 0.784-1.75 1.75s0.784 1.75 1.75 1.75v0zM21.25 14.25c0.966 0 1.75-0.784 1.75-1.75s-0.784-1.75-1.75-1.75c-0.966 0-1.75 0.784-1.75 1.75s0.784 1.75 1.75 1.75v0zM21.489 19.013c-1.218 1.93-3.259 3.112-5.489 3.112s-4.271-1.182-5.489-3.112c-0.253-0.402-0.766-0.509-1.145-0.24s-0.48 0.812-0.227 1.214c1.521 2.41 4.073 3.888 6.861 3.888s5.339-1.478 6.861-3.888c0.253-0.402 0.152-0.945-0.227-1.214s-0.891-0.161-1.145 0.24v0z"></path>
</svg>
