<!-- Generated by IcoMoon.io -->
<svg version="1.1" xmlns="http://www.w3.org/2000/svg" width="32" height="32" viewBox="0 0 32 32">
<title>sound</title>
<path d="M25.986 15.994c-0.227-3.521-2.824-5.787-2.935-5.881-0.37-0.318-0.926-0.272-1.241 0.101s-0.27 0.935 0.101 1.252c0.021 0.018 2.139 1.865 2.318 4.643 0.119 1.845-0.654 3.708-2.296 5.535-0.327 0.364-0.299 0.925 0.061 1.255 0.169 0.154 0.38 0.23 0.591 0.23 0.24 0 0.479-0.098 0.653-0.292 1.975-2.198 2.899-4.5 2.748-6.844zM30.003 11.703c-1.353-3.842-3.893-6.164-4.001-6.261-0.363-0.327-0.919-0.296-1.244 0.070s-0.293 0.927 0.069 1.255c0.023 0.021 2.311 2.112 3.515 5.531 0.701 1.99 0.892 4.029 0.567 6.059-0.41 2.568-1.651 5.149-3.69 7.67-0.307 0.38-0.251 0.94 0.126 1.25 0.163 0.135 0.36 0.2 0.556 0.2 0.255 0 0.509-0.112 0.683-0.327 2.236-2.766 3.604-5.63 4.064-8.51 0.372-2.329 0.154-4.663-0.647-6.937zM15.995 1.734c-1.793 1.396-6.513 5.601-7.306 6.309h-6.026c-1.468 0-2.663 1.205-2.663 2.686v9.659c0 1.481 1.195 2.686 2.663 2.686h5.166c1.064 0.967 6.163 5.589 8.157 7.183 0.286 0.228 0.613 0.344 0.951 0.344 0.237 0 0.479-0.057 0.715-0.172 0.853-0.416 1.547-1.611 1.547-2.664v-23.531c0-1.045-0.688-2.236-1.534-2.655-0.571-0.283-1.18-0.226-1.671 0.156zM16.6 28.304c-2.163-1.741-7.804-6.846-7.861-6.898-0.158-0.171-0.382-0.278-0.631-0.278h-5.327c-0.473 0-0.858-0.386-0.858-0.86v-9.277c0-0.474 0.385-0.86 0.858-0.86h5.976c0.173 0 0.333-0.052 0.468-0.14 0.148-0.027 0.291-0.094 0.413-0.201 0.051-0.046 5.060-4.496 6.961-5.99 0.18 0.161 0.737-0.165 0.721 0.95v22.6c0.025 1.298-0.539 0.789-0.719 0.954z"></path>
</svg>
