<?xml version="1.0" encoding="UTF-8"?>
<svg width="19px" height="17px" viewBox="0 0 19 17" version="1.1" xmlns="http://www.w3.org/2000/svg" xmlns:xlink="http://www.w3.org/1999/xlink">
    <!-- Generator: Sketch 52.5 (67469) - http://www.bohemiancoding.com/sketch -->
    <title>qiehuan-2</title>
    <desc>Created with Sketch.</desc>
    <g id="Page-1" stroke="none" stroke-width="1" fill="none" fill-rule="evenodd">
        <g id="助教-直播暂停" transform="translate(-1079.000000, -51.000000)" fill="#FFFFFF" fill-rule="nonzero">
            <g id="Group-15" transform="translate(1071.000000, 44.000000)">
                <g id="Group-12">
                    <g id="Group-10">
                        <g id="qiehuan-2" transform="translate(8.000000, 7.000000)">
                            <path d="M12.6666667,3.61904762 L12.6666667,1.80952381 C12.6666667,0.810151412 11.8565153,8.78354597e-09 10.8571429,0 L1.80952381,0 C0.810151407,-4.01861598e-17 1.22387822e-16,0.810151406 0,1.80952381 L0,9.04761904 C1.22387822e-16,10.0469915 0.810151407,10.8571429 1.80952381,10.8571429 L4.52380952,10.8571429 L4.52380952,9.04761904 L1.80952381,9.04761904 L1.80952381,1.80952381 L10.8571429,1.80952381 L10.8571429,3.61904762 L12.6666667,3.61904762 Z" id="Shape"></path>
                            <path d="M8.14285715,5.42857143 L17.1904762,5.42857143 C18.1898486,5.42857143 19,6.23872283 19,7.23809524 L19,14.4761905 C19,15.4755629 18.1898486,16.2857143 17.1904762,16.2857143 L8.14285715,16.2857143 C7.14348474,16.2857143 6.33333333,15.4755629 6.33333333,14.4761905 L6.33333333,7.23809524 C6.33333333,6.23872283 7.14348474,5.42857143 8.14285715,5.42857143 Z M8.14285715,7.23809524 L8.14285715,14.4761905 L17.1904762,14.4761905 L17.1904762,7.23809524 L8.14285715,7.23809524 Z" id="Shape"></path>
                        </g>
                    </g>
                </g>
            </g>
        </g>
    </g>
</svg>