<?xml version="1.0" standalone="no"?><!DOCTYPE svg PUBLIC "-//W3C//DTD SVG 1.1//EN" "http://www.w3.org/Graphics/SVG/1.1/DTD/svg11.dtd"><svg t="1543454704774" class="icon" style="" viewBox="0 0 1113 1024" version="1.1" xmlns="http://www.w3.org/2000/svg" p-id="1089" xmlns:xlink="http://www.w3.org/1999/xlink" width="28.259765625" height="26"><defs><style type="text/css"></style></defs><path d="M553.65 132.044c0 0 0 0-2.129 0-6.386 0-14.901 2.129-21.286 8.514-2.129 0-4.257 2.129-4.257 4.257l-447.007 444.878c-12.772 12.772-12.772 34.058 0 46.829s34.058 12.772 46.829 0l106.43-104.302 287.362-287.362v713.082c0 19.158 14.901 34.057 34.058 34.057 17.029 0 31.929-14.901 31.929-34.057v-713.082l289.49 287.362 104.302 104.302c12.772 12.772 34.058 12.772 46.829 0 14.901-12.772 14.901-34.058 0-46.829l-444.878-444.878c-2.129-2.129-2.129-4.257-4.257-4.257-6.386-6.386-14.901-8.514-23.415-8.514 0 0 0 0 0 0zM553.65 97.987h487.45c19.158 0 34.058-14.901 34.058-31.929 0-19.158-14.901-34.058-34.058-34.058h-974.901c-19.158 0-34.058 14.901-34.058 34.058 0 17.029 14.901 31.929 34.058 31.929h487.45z" p-id="1090" fill="#666666"></path></svg>