<!-- Generated by IcoMoon.io -->
<svg version="1.1" xmlns="http://www.w3.org/2000/svg" width="32" height="32" viewBox="0 0 32 32">
<title>trash</title>
<path d="M4 6c-0 0.005-0 0.009-0 0.014v23.973c0 1.114 0.898 2.014 2.005 2.014h19.99c1.093 0 2.005-0.902 2.005-2.014v-23.973c0-0.005 0-0.009-0-0.014h3.007c0.54 0 0.993-0.448 0.993-1 0-0.536-0.445-1-0.993-1h-30.014c-0.54 0-0.993 0.448-0.993 1 0 0.536 0.445 1 0.993 1h3.007zM26 6v23.013c0 0.545-0.455 0.987-1.019 0.987h-17.961c-0.563 0-1.019-0.451-1.019-0.987v-23.013h20zM10 2v2h12v-2c0-1.112-0.895-2-1.999-2h-8.021c-1.105 0-1.981 0.895-1.981 2zM12 3c0-0.552 0.43-1 0.981-1h6.038c0.542 0 0.981 0.464 0.981 1v1h-8v-1zM18 9.019c0-0.563 0.464-1.019 1-1.019 0.552 0 1 0.455 1 1.019v17.961c0 0.563-0.464 1.019-1 1.019-0.552 0-1-0.455-1-1.019v-17.961zM12 9.019c0-0.563 0.464-1.019 1-1.019 0.552 0 1 0.455 1 1.019v17.961c0 0.563-0.464 1.019-1 1.019-0.552 0-1-0.455-1-1.019v-17.961z"></path>
</svg>
