<?xml version="1.0" encoding="UTF-8"?>
<svg width="38px" height="38px" viewBox="0 0 38 38" version="1.1" xmlns="http://www.w3.org/2000/svg" xmlns:xlink="http://www.w3.org/1999/xlink">
    <!-- Generator: Sketch 49 (51002) - http://www.bohemiancoding.com/sketch -->
    <title>time</title>
    <desc>Created with Sketch.</desc>
    <defs></defs>
    <g id="Page-1" stroke="none" stroke-width="1" fill="none" fill-rule="evenodd">
        <g id="自动播放录像无讲义-主讲老师-未开播0-copy" transform="translate(-231.000000, -135.000000)" fill="#FFFFFF" fill-rule="nonzero">
            <g id="Group-2" transform="translate(192.000000, 129.000000)">
                <g id="Group">
                    <g id="time" transform="translate(39.000000, 6.000000)">
                        <path d="M17.0252258,23.5702774 C17.7899735,23.9389679 18.546722,24.3217598 19.3050417,24.7045517 L22.8743726,26.4883768 C24.5654265,27.3308645 26.2580993,28.1765273 27.9459631,29.0236843 C28.2227026,29.1601689 28.4883478,29.2307692 28.7458985,29.2307692 C28.9538817,29.2307692 29.1570558,29.1852899 29.3570396,29.0958722 C29.8945676,28.8542809 30.1953529,28.3993012 30.2049711,27.8156813 C30.2129705,27.2257578 29.9153755,26.7739065 29.3186618,26.475863 L26.0229279,24.8285224 C23.9559043,23.7930512 21.8872618,22.7559925 19.8154291,21.7299533 C19.5786387,21.6122861 19.5210243,21.5212809 19.5226432,21.2734327 C19.5274523,19.8457375 19.5258334,18.4180424 19.5258334,16.9887597 C19.5242145,15.1264898 19.5242145,13.2657607 19.5386419,11.4034908 C19.5466412,10.2707574 18.7787032,9.74830577 18.0587614,9.74358974 L18.050762,9.74358974 C17.6587937,9.74358974 17.2940136,9.89263484 17.0204643,10.165604 C16.7180601,10.4684102 16.5549304,10.9045726 16.5645011,11.3909303 C16.5933083,12.7197757 16.5884991,14.0722012 16.5820711,15.379054 C16.5804522,15.9249923 16.5772619,16.4710241 16.5772619,17.0154216 L16.5788809,18.363131 C16.5788809,19.8598389 16.5804998,21.3565935 16.5708815,22.8517138 C16.5692626,23.2078905 16.7004901,23.4149754 17.0252734,23.5702774 L17.0252258,23.5702774 Z" id="Shape"></path>
                        <path d="M37.8707114,17.0788385 C37.7041944,15.5876037 37.333781,14.1102703 36.7735057,12.6872955 C36.4202302,11.7950209 35.5502658,11.3062096 34.6631169,11.4939937 C34.0763471,11.6181362 33.6157041,11.9377756 33.362061,12.3909329 C33.0943832,12.8735094 33.0710384,13.4880335 33.2982797,14.1180754 C34.2398534,16.71574 34.4733014,19.3227337 33.992417,21.8723207 C33.2640499,25.7347338 31.3373162,28.8569099 28.2635837,31.1504067 C24.7478286,33.7760125 20.7854651,34.7489706 16.4822397,34.0382452 C12.4980599,33.3834024 9.26716689,31.4607631 6.8766405,28.323023 C4.21533292,24.8330838 3.24883953,20.9194527 4.00365484,16.6924171 C4.68218266,12.9014045 6.57158321,9.80250512 9.61886747,7.481067 C13.0785303,4.8492263 17.0284803,3.8452326 21.3784416,4.49231644 C22.0881422,4.59937093 22.7853366,4.78406069 23.5215316,4.97803344 C23.7113934,5.02925148 23.9028301,5.08042334 24.0942667,5.12854705 L23.8296923,5.57080491 C23.630474,5.89667913 23.4328306,6.22255334 23.247647,6.5546624 C23.003314,6.99539619 23.0764518,7.29018858 23.1822909,7.46093078 C23.2896584,7.63315087 23.5324629,7.83802303 24.0896348,7.81322223 C24.1643011,7.81008172 24.2390601,7.80546332 24.3137264,7.79618034 L25.4295987,7.62081974 C26.6684482,7.42684699 27.9056764,7.23287425 29.142951,7.02804826 C29.5709391,6.95821808 29.9102261,6.74563318 30.0969846,6.43370653 C30.2774899,6.12801472 30.3024096,5.74625788 30.1654441,5.35831239 C29.6113756,3.77706503 29.0386868,2.20196015 28.451917,0.631566026 C28.3570093,0.375522001 28.0534805,0 27.7079867,0 L27.7033085,0 C27.382688,0.00309432715 27.0652172,0.256044025 26.9049069,0.491905649 C26.6061027,0.926404601 26.3244365,1.38884487 26.0348961,1.91645074 C26.0240112,1.91335641 26.0100228,1.90869183 25.9959881,1.90245699 C22.9953935,0.738620509 19.8983162,0.330492613 16.7981356,0.704490542 C12.7221515,1.19020754 9.22510919,2.73266034 6.40191651,5.29000627 C1.104221,10.0881069 -0.92057014,16.0299078 0.383635471,22.9477149 C1.23493337,27.4463123 3.53675877,31.1457883 7.22986961,33.948325 C10.7875898,36.6453313 14.6394824,38 18.7295475,38 C20.0975345,38 21.4935908,37.8494864 22.9129456,37.5437946 C29.2813986,36.1797967 33.8569801,32.4601384 36.5089312,26.4920126 C37.7928954,23.5994633 38.250435,20.432304 37.8707114,17.0789309 L37.8707114,17.0788385 Z" id="Shape"></path>
                    </g>
                </g>
            </g>
        </g>
    </g>
</svg>