<?xml version="1.0" encoding="UTF-8"?>
<svg width="21px" height="15px" viewBox="0 0 21 15" version="1.1" xmlns="http://www.w3.org/2000/svg" xmlns:xlink="http://www.w3.org/1999/xlink">
    <!-- Generator: Sketch 49 (51002) - http://www.bohemiancoding.com/sketch -->
    <title>shipin</title>
    <desc>Created with Sketch.</desc>
    <defs></defs>
    <g id="Page-1" stroke="none" stroke-width="1" fill="none" fill-rule="evenodd">
        <g id="助教-关闭视频后页面" transform="translate(-1389.000000, -57.000000)" fill="#999999" fill-rule="nonzero">
            <g id="shipin" transform="translate(1389.000000, 57.000000)">
                <path d="M19.3369176,2.04181485 C18.8987125,1.75639987 18.368842,1.73932376 17.9194582,2.00278374 L14.7447071,3.84944304 C14.702228,3.87383749 14.6619847,3.90067137 14.6239771,3.92750526 L14.6239771,2.83951312 C14.6239771,1.2733899 13.4569207,0 12.0215754,0 L2.60240167,0 C1.16705642,2.07999528e-15 0,1.2733899 0,2.83951312 L0,11.3312186 C0,12.8973418 1.16705642,14.1707317 2.60240167,14.1707317 L12.0215754,14.1707317 C13.4569207,14.1707317 14.6239771,12.8973418 14.6239771,11.3312186 L14.6239771,10.2432264 C14.6619847,10.2724998 14.702228,10.2968942 14.7447071,10.3212887 L17.9194582,12.167948 C18.1340893,12.2923596 18.3643706,12.3533457 18.5968875,12.3533457 C18.8539977,12.3533457 19.1088721,12.277723 19.3369176,12.1264774 C19.7751227,11.8410624 20.0344685,11.3360975 20.0344685,10.7799042 L20.0344685,3.38838808 C20.0367043,2.83219479 19.7751227,2.32966927 19.3369176,2.04181485 Z M13.3518409,11.3312186 C13.3518409,12.1313563 12.7548982,12.7826879 12.0215754,12.7826879 L2.60240167,12.7826879 C1.86907886,12.7826879 1.27213621,12.1313563 1.27213621,11.3312186 L1.27213621,2.83951312 C1.27213621,2.0393754 1.86907886,1.38804378 2.60240167,1.38804378 L12.0215754,1.38804378 C12.7548982,1.38804378 13.3518409,2.0393754 13.3518409,2.83951312 L13.3518409,11.3312186 Z M18.7623323,10.7823436 C18.7623323,10.8677242 18.7176175,10.9140736 18.6818457,10.9384681 C18.6438381,10.9628625 18.5879446,10.9823781 18.5186366,10.943347 L15.3438855,9.09668765 C15.2902277,9.06497487 15.2566916,9.00398876 15.2566916,8.93812377 L15.2566916,5.23504738 C15.2566916,5.16918239 15.2902277,5.10575684 15.3438855,5.07648351 L18.5186366,3.2298242 C18.5879446,3.18835365 18.6460738,3.21030865 18.6818457,3.23470309 C18.7176175,3.25909753 18.7623323,3.30544697 18.7623323,3.39082752 L18.7623323,10.7823436 Z" id="Shape"></path>
                <path d="M10.1493078,5.84231406 L6.20261427,3.12657038 C5.82574168,2.86697724 5.3755883,2.86697724 4.9987157,3.12657038 C4.62184311,3.38616353 4.39781329,3.85043589 4.39781329,4.36712609 L4.39781329,9.80110953 C4.39781329,10.3202958 4.62184311,10.7845682 4.9987157,11.0441613 C5.187152,11.1739579 5.39233819,11.2388562 5.59961812,11.2388562 C5.80689805,11.2388562 6.01208424,11.1739579 6.20052054,11.0441613 L10.1493078,8.32841765 C10.5261804,8.0688245 10.7502103,7.60455214 10.7502103,7.08536585 C10.7502103,6.56617956 10.5261804,6.10190721 10.1493078,5.84231406 Z M9.5525929,7.09535021 L5.59124317,9.80110953 L5.60589933,4.35963783 L9.55678037,7.09285412 L9.5525929,7.09535021 Z" id="Shape"></path>
            </g>
        </g>
    </g>
</svg>