<?xml version="1.0" encoding="UTF-8"?>
<svg width="68px" height="68px" viewBox="0 0 68 68" version="1.1" xmlns="http://www.w3.org/2000/svg" xmlns:xlink="http://www.w3.org/1999/xlink">
    <!-- Generator: Sketch 46.2 (44496) - http://www.bohemiancoding.com/sketch -->
    <title>结束</title>
    <desc>Created with Sketch.</desc>
    <defs></defs>
    <g id="Page-1" stroke="none" stroke-width="1" fill="none" fill-rule="evenodd">
        <g id="Artboard" transform="translate(-522.000000, -287.000000)" fill="#FF7A6C">
            <path d="M556,355 C537.222319,355 522,339.777681 522,321 C522,302.222319 537.222319,287 556,287 C574.777681,287 590,302.222319 590,321 C590,339.777681 574.777681,355 556,355 Z M552.48,304 L553.68,328.432 L557.76,328.432 L558.96,304 L552.48,304 Z M558.384,332.032 C557.679996,331.359997 556.784005,331.024 555.696,331.024 C554.639995,331.024 553.776003,331.359997 553.104,332.032 C552.367996,332.672003 552,333.535995 552,334.624 C552,335.712005 552.367996,336.575997 553.104,337.216 C553.808004,337.920004 554.671995,338.272 555.696,338.272 C556.720005,338.272 557.615996,337.936003 558.384,337.264 C559.088004,336.559996 559.44,335.680005 559.44,334.624 C559.44,333.599995 559.088004,332.736004 558.384,332.032 Z" id="Combined-Shape"></path>
        </g>
    </g>
</svg>